<mxfile host="Electron" modified="2024-05-01T18:19:35.547Z" agent="Mozilla/5.0 (X11; Linux x86_64) AppleWebKit/537.36 (KHTML, like Gecko) draw.io/24.2.5 Chrome/120.0.6099.109 Electron/28.1.0 Safari/537.36" etag="fIitLjdTO28Jk7HL-s5n" version="24.2.5" type="device">
  <diagram id="C5RBs43oDa-KdzZeNtuy" name="Page-1">
    <mxGraphModel dx="1420" dy="853" grid="1" gridSize="10" guides="1" tooltips="1" connect="1" arrows="1" fold="1" page="1" pageScale="1" pageWidth="827" pageHeight="1169" math="0" shadow="0">
      <root>
        <mxCell id="WIyWlLk6GJQsqaUBKTNV-0" />
        <mxCell id="WIyWlLk6GJQsqaUBKTNV-1" parent="WIyWlLk6GJQsqaUBKTNV-0" />
        <mxCell id="WOu1JFI7bPLgPp-yoU6n-0" value="Python Mutation Tester" style="swimlane;whiteSpace=wrap;html=1;" vertex="1" parent="WIyWlLk6GJQsqaUBKTNV-1">
          <mxGeometry x="40" y="40" width="540" height="730" as="geometry" />
        </mxCell>
        <mxCell id="WOu1JFI7bPLgPp-yoU6n-5" style="edgeStyle=orthogonalEdgeStyle;rounded=0;orthogonalLoop=1;jettySize=auto;html=1;entryX=0.5;entryY=0;entryDx=0;entryDy=0;" edge="1" parent="WOu1JFI7bPLgPp-yoU6n-0" source="WOu1JFI7bPLgPp-yoU6n-2" target="WOu1JFI7bPLgPp-yoU6n-4">
          <mxGeometry relative="1" as="geometry" />
        </mxCell>
        <mxCell id="WOu1JFI7bPLgPp-yoU6n-2" value="Initialize LLM" style="rounded=0;whiteSpace=wrap;html=1;" vertex="1" parent="WOu1JFI7bPLgPp-yoU6n-0">
          <mxGeometry x="60" y="60" width="160" height="40" as="geometry" />
        </mxCell>
        <mxCell id="WOu1JFI7bPLgPp-yoU6n-8" style="edgeStyle=orthogonalEdgeStyle;rounded=0;orthogonalLoop=1;jettySize=auto;html=1;" edge="1" parent="WOu1JFI7bPLgPp-yoU6n-0" source="WOu1JFI7bPLgPp-yoU6n-4" target="WOu1JFI7bPLgPp-yoU6n-7">
          <mxGeometry relative="1" as="geometry" />
        </mxCell>
        <mxCell id="WOu1JFI7bPLgPp-yoU6n-4" value="Scan for Mutation Targets" style="rounded=0;whiteSpace=wrap;html=1;" vertex="1" parent="WOu1JFI7bPLgPp-yoU6n-0">
          <mxGeometry x="60" y="140" width="160" height="40" as="geometry" />
        </mxCell>
        <mxCell id="WOu1JFI7bPLgPp-yoU6n-6" value="AI (LLM)" style="swimlane;whiteSpace=wrap;html=1;" vertex="1" parent="WOu1JFI7bPLgPp-yoU6n-0">
          <mxGeometry x="260" y="100" width="240" height="180" as="geometry" />
        </mxCell>
        <mxCell id="WOu1JFI7bPLgPp-yoU6n-11" style="edgeStyle=orthogonalEdgeStyle;rounded=0;orthogonalLoop=1;jettySize=auto;html=1;entryX=0.5;entryY=0;entryDx=0;entryDy=0;" edge="1" parent="WOu1JFI7bPLgPp-yoU6n-6" source="WOu1JFI7bPLgPp-yoU6n-7" target="WOu1JFI7bPLgPp-yoU6n-9">
          <mxGeometry relative="1" as="geometry" />
        </mxCell>
        <mxCell id="WOu1JFI7bPLgPp-yoU6n-7" value="Generate LLM Prompt" style="rounded=0;whiteSpace=wrap;html=1;" vertex="1" parent="WOu1JFI7bPLgPp-yoU6n-6">
          <mxGeometry x="40" y="40" width="160" height="40" as="geometry" />
        </mxCell>
        <mxCell id="WOu1JFI7bPLgPp-yoU6n-12" style="edgeStyle=orthogonalEdgeStyle;rounded=0;orthogonalLoop=1;jettySize=auto;html=1;" edge="1" parent="WOu1JFI7bPLgPp-yoU6n-6" source="WOu1JFI7bPLgPp-yoU6n-9">
          <mxGeometry relative="1" as="geometry">
            <mxPoint x="-40" y="140" as="targetPoint" />
          </mxGeometry>
        </mxCell>
        <mxCell id="WOu1JFI7bPLgPp-yoU6n-9" value="Query Mutations" style="rounded=0;whiteSpace=wrap;html=1;" vertex="1" parent="WOu1JFI7bPLgPp-yoU6n-6">
          <mxGeometry x="40" y="120" width="160" height="40" as="geometry" />
        </mxCell>
        <mxCell id="WOu1JFI7bPLgPp-yoU6n-14" value="" style="edgeStyle=orthogonalEdgeStyle;rounded=0;orthogonalLoop=1;jettySize=auto;html=1;exitX=1;exitY=0.5;exitDx=0;exitDy=0;" edge="1" parent="WOu1JFI7bPLgPp-yoU6n-0" source="WOu1JFI7bPLgPp-yoU6n-13" target="WOu1JFI7bPLgPp-yoU6n-9">
          <mxGeometry relative="1" as="geometry" />
        </mxCell>
        <mxCell id="WOu1JFI7bPLgPp-yoU6n-16" style="edgeStyle=orthogonalEdgeStyle;rounded=0;orthogonalLoop=1;jettySize=auto;html=1;entryX=0.5;entryY=0;entryDx=0;entryDy=0;" edge="1" parent="WOu1JFI7bPLgPp-yoU6n-0" source="WOu1JFI7bPLgPp-yoU6n-13" target="WOu1JFI7bPLgPp-yoU6n-15">
          <mxGeometry relative="1" as="geometry" />
        </mxCell>
        <mxCell id="WOu1JFI7bPLgPp-yoU6n-13" value="Store Mutation Results" style="rounded=0;whiteSpace=wrap;html=1;" vertex="1" parent="WOu1JFI7bPLgPp-yoU6n-0">
          <mxGeometry x="60" y="220" width="160" height="40" as="geometry" />
        </mxCell>
        <mxCell id="WOu1JFI7bPLgPp-yoU6n-18" style="edgeStyle=orthogonalEdgeStyle;rounded=0;orthogonalLoop=1;jettySize=auto;html=1;entryX=0.5;entryY=0;entryDx=0;entryDy=0;dashed=1;dashPattern=1 2;" edge="1" parent="WOu1JFI7bPLgPp-yoU6n-0" source="WOu1JFI7bPLgPp-yoU6n-15" target="WOu1JFI7bPLgPp-yoU6n-17">
          <mxGeometry relative="1" as="geometry" />
        </mxCell>
        <mxCell id="WOu1JFI7bPLgPp-yoU6n-19" value="Init" style="edgeLabel;html=1;align=center;verticalAlign=middle;resizable=0;points=[];" vertex="1" connectable="0" parent="WOu1JFI7bPLgPp-yoU6n-18">
          <mxGeometry x="0.2676" y="-2" relative="1" as="geometry">
            <mxPoint x="-49" y="-12" as="offset" />
          </mxGeometry>
        </mxCell>
        <mxCell id="WOu1JFI7bPLgPp-yoU6n-35" style="edgeStyle=orthogonalEdgeStyle;rounded=0;orthogonalLoop=1;jettySize=auto;html=1;entryX=0.5;entryY=0;entryDx=0;entryDy=0;" edge="1" parent="WOu1JFI7bPLgPp-yoU6n-0" source="WOu1JFI7bPLgPp-yoU6n-15" target="WOu1JFI7bPLgPp-yoU6n-29">
          <mxGeometry relative="1" as="geometry" />
        </mxCell>
        <mxCell id="WOu1JFI7bPLgPp-yoU6n-15" value="Register Dependency Injector" style="rounded=0;whiteSpace=wrap;html=1;" vertex="1" parent="WOu1JFI7bPLgPp-yoU6n-0">
          <mxGeometry x="60" y="300" width="160" height="40" as="geometry" />
        </mxCell>
        <mxCell id="WOu1JFI7bPLgPp-yoU6n-17" value="Dependency Injector" style="swimlane;whiteSpace=wrap;html=1;fontSize=12;" vertex="1" parent="WOu1JFI7bPLgPp-yoU6n-0">
          <mxGeometry x="270" y="410" width="240" height="200" as="geometry" />
        </mxCell>
        <mxCell id="WOu1JFI7bPLgPp-yoU6n-25" value="&lt;span style=&quot;font-size: 11px;&quot;&gt;Load Mutants&lt;/span&gt;" style="rounded=0;whiteSpace=wrap;html=1;" vertex="1" parent="WOu1JFI7bPLgPp-yoU6n-17">
          <mxGeometry x="40" y="130" width="160" height="40" as="geometry" />
        </mxCell>
        <mxCell id="WOu1JFI7bPLgPp-yoU6n-24" style="edgeStyle=orthogonalEdgeStyle;rounded=0;orthogonalLoop=1;jettySize=auto;html=1;exitX=0.5;exitY=1;exitDx=0;exitDy=0;" edge="1" parent="WOu1JFI7bPLgPp-yoU6n-17" source="WOu1JFI7bPLgPp-yoU6n-31" target="WOu1JFI7bPLgPp-yoU6n-25">
          <mxGeometry relative="1" as="geometry">
            <mxPoint x="120" y="120" as="targetPoint" />
            <mxPoint x="120" y="90" as="sourcePoint" />
          </mxGeometry>
        </mxCell>
        <mxCell id="WOu1JFI7bPLgPp-yoU6n-32" value="Yes" style="edgeLabel;html=1;align=center;verticalAlign=middle;resizable=0;points=[];" vertex="1" connectable="0" parent="WOu1JFI7bPLgPp-yoU6n-24">
          <mxGeometry x="-0.2022" relative="1" as="geometry">
            <mxPoint x="20" as="offset" />
          </mxGeometry>
        </mxCell>
        <mxCell id="WOu1JFI7bPLgPp-yoU6n-31" value="" style="rhombus;whiteSpace=wrap;html=1;" vertex="1" parent="WOu1JFI7bPLgPp-yoU6n-17">
          <mxGeometry x="110" y="60" width="20" height="20" as="geometry" />
        </mxCell>
        <mxCell id="WOu1JFI7bPLgPp-yoU6n-34" value="Is Mutant?" style="text;html=1;align=center;verticalAlign=middle;whiteSpace=wrap;rounded=0;" vertex="1" parent="WOu1JFI7bPLgPp-yoU6n-17">
          <mxGeometry x="90" y="40" width="60" height="20" as="geometry" />
        </mxCell>
        <mxCell id="WOu1JFI7bPLgPp-yoU6n-23" style="edgeStyle=orthogonalEdgeStyle;rounded=0;orthogonalLoop=1;jettySize=auto;html=1;entryX=0;entryY=0.5;entryDx=0;entryDy=0;" edge="1" parent="WOu1JFI7bPLgPp-yoU6n-0" source="WOu1JFI7bPLgPp-yoU6n-20" target="WOu1JFI7bPLgPp-yoU6n-31">
          <mxGeometry relative="1" as="geometry">
            <mxPoint x="310" y="480" as="targetPoint" />
          </mxGeometry>
        </mxCell>
        <mxCell id="WOu1JFI7bPLgPp-yoU6n-20" value="Load Tests" style="rounded=0;whiteSpace=wrap;html=1;" vertex="1" parent="WOu1JFI7bPLgPp-yoU6n-0">
          <mxGeometry x="60" y="460" width="160" height="40" as="geometry" />
        </mxCell>
        <mxCell id="WOu1JFI7bPLgPp-yoU6n-38" style="edgeStyle=orthogonalEdgeStyle;rounded=0;orthogonalLoop=1;jettySize=auto;html=1;entryX=0.5;entryY=0;entryDx=0;entryDy=0;" edge="1" parent="WOu1JFI7bPLgPp-yoU6n-0" source="WOu1JFI7bPLgPp-yoU6n-27" target="WOu1JFI7bPLgPp-yoU6n-37">
          <mxGeometry relative="1" as="geometry" />
        </mxCell>
        <mxCell id="WOu1JFI7bPLgPp-yoU6n-27" value="Run Tests" style="rounded=0;whiteSpace=wrap;html=1;" vertex="1" parent="WOu1JFI7bPLgPp-yoU6n-0">
          <mxGeometry x="60" y="540" width="160" height="40" as="geometry" />
        </mxCell>
        <mxCell id="WOu1JFI7bPLgPp-yoU6n-26" style="edgeStyle=orthogonalEdgeStyle;rounded=0;orthogonalLoop=1;jettySize=auto;html=1;" edge="1" parent="WOu1JFI7bPLgPp-yoU6n-0" source="WOu1JFI7bPLgPp-yoU6n-20" target="WOu1JFI7bPLgPp-yoU6n-27">
          <mxGeometry relative="1" as="geometry">
            <mxPoint x="140" y="490" as="targetPoint" />
          </mxGeometry>
        </mxCell>
        <mxCell id="WOu1JFI7bPLgPp-yoU6n-28" style="edgeStyle=orthogonalEdgeStyle;rounded=0;orthogonalLoop=1;jettySize=auto;html=1;entryX=1;entryY=0.5;entryDx=0;entryDy=0;" edge="1" parent="WOu1JFI7bPLgPp-yoU6n-0" source="WOu1JFI7bPLgPp-yoU6n-25" target="WOu1JFI7bPLgPp-yoU6n-27">
          <mxGeometry relative="1" as="geometry" />
        </mxCell>
        <mxCell id="WOu1JFI7bPLgPp-yoU6n-36" style="edgeStyle=orthogonalEdgeStyle;rounded=0;orthogonalLoop=1;jettySize=auto;html=1;entryX=0.5;entryY=0;entryDx=0;entryDy=0;" edge="1" parent="WOu1JFI7bPLgPp-yoU6n-0" source="WOu1JFI7bPLgPp-yoU6n-29" target="WOu1JFI7bPLgPp-yoU6n-20">
          <mxGeometry relative="1" as="geometry" />
        </mxCell>
        <mxCell id="WOu1JFI7bPLgPp-yoU6n-29" value="Select Mutant" style="rounded=0;whiteSpace=wrap;html=1;" vertex="1" parent="WOu1JFI7bPLgPp-yoU6n-0">
          <mxGeometry x="60" y="380" width="160" height="40" as="geometry" />
        </mxCell>
        <mxCell id="WOu1JFI7bPLgPp-yoU6n-42" style="edgeStyle=orthogonalEdgeStyle;rounded=0;orthogonalLoop=1;jettySize=auto;html=1;" edge="1" parent="WOu1JFI7bPLgPp-yoU6n-0" source="WOu1JFI7bPLgPp-yoU6n-37" target="WOu1JFI7bPLgPp-yoU6n-41">
          <mxGeometry relative="1" as="geometry" />
        </mxCell>
        <mxCell id="WOu1JFI7bPLgPp-yoU6n-44" style="edgeStyle=orthogonalEdgeStyle;rounded=0;orthogonalLoop=1;jettySize=auto;html=1;entryX=0.5;entryY=0;entryDx=0;entryDy=0;" edge="1" parent="WOu1JFI7bPLgPp-yoU6n-0" source="WOu1JFI7bPLgPp-yoU6n-37" target="WOu1JFI7bPLgPp-yoU6n-43">
          <mxGeometry relative="1" as="geometry" />
        </mxCell>
        <mxCell id="WOu1JFI7bPLgPp-yoU6n-37" value="" style="rhombus;whiteSpace=wrap;html=1;" vertex="1" parent="WOu1JFI7bPLgPp-yoU6n-0">
          <mxGeometry x="130" y="620" width="20" height="20" as="geometry" />
        </mxCell>
        <mxCell id="WOu1JFI7bPLgPp-yoU6n-39" value="Mutant left?" style="text;html=1;align=center;verticalAlign=middle;whiteSpace=wrap;rounded=0;" vertex="1" parent="WOu1JFI7bPLgPp-yoU6n-0">
          <mxGeometry x="60" y="615" width="60" height="30" as="geometry" />
        </mxCell>
        <mxCell id="WOu1JFI7bPLgPp-yoU6n-41" value="Generate Report" style="rounded=0;whiteSpace=wrap;html=1;" vertex="1" parent="WOu1JFI7bPLgPp-yoU6n-0">
          <mxGeometry x="310" y="670" width="160" height="40" as="geometry" />
        </mxCell>
        <mxCell id="WOu1JFI7bPLgPp-yoU6n-45" style="edgeStyle=orthogonalEdgeStyle;rounded=0;orthogonalLoop=1;jettySize=auto;html=1;entryX=0;entryY=0.5;entryDx=0;entryDy=0;" edge="1" parent="WOu1JFI7bPLgPp-yoU6n-0" source="WOu1JFI7bPLgPp-yoU6n-43" target="WOu1JFI7bPLgPp-yoU6n-29">
          <mxGeometry relative="1" as="geometry">
            <Array as="points">
              <mxPoint x="40" y="690" />
              <mxPoint x="40" y="400" />
            </Array>
          </mxGeometry>
        </mxCell>
        <mxCell id="WOu1JFI7bPLgPp-yoU6n-43" value="Unload Mutant Modules" style="rounded=0;whiteSpace=wrap;html=1;" vertex="1" parent="WOu1JFI7bPLgPp-yoU6n-0">
          <mxGeometry x="60" y="670" width="160" height="40" as="geometry" />
        </mxCell>
      </root>
    </mxGraphModel>
  </diagram>
</mxfile>
